<svg width="512" height="512" viewBox="0 0 512 512" fill="none" xmlns="http://www.w3.org/2000/svg">
	<path
		d="M362 -0.000427246C444.843 -0.000427246 512 67.1571 512 150V362C512 444.842 444.843 512 362 512H150C67.1573 512 0 444.842 0 362V150C0.000230964 67.1571 67.1574 -0.000427246 150 -0.000427246H362ZM254.019 57.0123C226.933 56.7325 202.651 61.0564 181.173 69.9839C159.695 78.9115 142.805 92.2788 130.503 110.085C118.204 127.524 111.926 148.686 111.669 173.57C111.416 198.087 116.734 218.088 127.623 233.572C138.872 248.693 151.939 260.356 166.824 268.561C182.07 276.404 201.944 284.661 226.448 293.332C249.534 301.256 266.212 308.382 276.483 314.71C286.754 321.037 291.831 329.872 291.714 341.216C291.623 349.999 288.344 356.919 281.876 361.976C275.768 366.67 267.903 368.968 258.281 368.869C247.59 368.758 238.89 365.557 232.183 359.266C218.739 346.657 206.514 329.357 188.083 329.167L168.559 328.965C136.194 328.631 108.302 357.038 123.517 385.605C130.799 399.278 140.789 411.088 153.486 421.036C181.422 442.551 217.308 453.535 261.144 453.988C290.011 454.286 315.014 449.237 336.15 438.842C357.643 428.451 374.008 414.164 385.245 395.981C396.839 377.802 402.755 357.185 402.993 334.131C403.228 311.444 397.718 292.722 386.465 277.966C375.572 262.849 362.326 251.184 346.729 242.971C331.491 234.396 311.976 225.778 288.185 217.115C272.208 211.094 260.14 206.211 251.98 202.467C243.825 198.357 236.923 193.711 231.273 188.529C225.985 182.985 223.378 176.553 223.453 169.235C223.544 160.452 226.109 153.708 231.147 149.003C236.186 144.297 242.625 141.984 250.466 142.065C260.801 142.172 269.146 145.187 275.501 151.108C287.737 161.911 298.895 177.699 315.218 177.868L340.656 178.131C372.856 178.464 400.778 150.214 385.368 121.939C378.697 109.699 369.73 99.0296 358.468 89.9312C332.671 68.4383 297.854 57.4652 254.019 57.0123Z"
		fill="url(#paint0_linear_429_153)"/>
	<defs>
		<linearGradient id="paint0_linear_429_153" x1="-69.5" y1="568.122" x2="776.06" y2="-181.012"
						gradientUnits="userSpaceOnUse">
			<stop offset="0.104835" stop-color="#0A56D3"/>
			<stop offset="0.480769" stop-color="#82D0F4"/>
			<stop offset="0.884615" stop-color="white"/>
		</linearGradient>
	</defs>
</svg>
