<svg width="19" height="18" viewBox="0 0 19 18" fill="none" xmlns="http://www.w3.org/2000/svg">
<g clip-path="url(#clip0_12_951)">
<path d="M15.7376 3.36898C14.5901 2.85148 13.3601 2.46898 12.0739 2.25148C12.0624 2.24928 12.0506 2.2507 12.0399 2.25554C12.0293 2.26037 12.0205 2.26839 12.0146 2.27848C11.8571 2.55523 11.6816 2.91598 11.5586 3.20098C10.1944 2.99716 8.80755 2.99716 7.44337 3.20098C7.30637 2.88513 7.15188 2.57715 6.98062 2.27848C6.97482 2.26827 6.96603 2.26007 6.95545 2.25498C6.94486 2.24988 6.93297 2.24814 6.92137 2.24998C5.63587 2.46748 4.40587 2.84998 3.25762 3.36823C3.24774 3.37237 3.23937 3.37944 3.23362 3.38848C0.899622 6.81973 0.259872 10.1662 0.574122 13.4707C0.574997 13.4788 0.577509 13.4867 0.581506 13.4937C0.585503 13.5008 0.590901 13.507 0.597372 13.512C1.95967 14.5038 3.47912 15.2593 5.09212 15.747C5.10337 15.7504 5.11539 15.7504 5.12663 15.747C5.13787 15.7435 5.1478 15.7367 5.15512 15.7275C5.50222 15.2633 5.8098 14.7708 6.07462 14.2552C6.0783 14.2482 6.08042 14.2404 6.08083 14.2325C6.08125 14.2245 6.07996 14.2166 6.07704 14.2092C6.07413 14.2018 6.06966 14.1951 6.06393 14.1896C6.05821 14.1841 6.05137 14.1799 6.04387 14.1772C5.55938 13.9948 5.08994 13.7746 4.63987 13.5187C4.63178 13.5141 4.62497 13.5076 4.62004 13.4997C4.61511 13.4918 4.61222 13.4828 4.61162 13.4735C4.61103 13.4642 4.61275 13.4549 4.61663 13.4464C4.62052 13.438 4.62644 13.4306 4.63387 13.425C4.72837 13.3552 4.82287 13.2825 4.91287 13.2097C4.92097 13.2032 4.93073 13.199 4.94106 13.1977C4.95139 13.1964 4.96188 13.1979 4.97137 13.2022C7.91662 14.5252 11.1064 14.5252 14.0171 13.2022C14.0266 13.1977 14.0372 13.1959 14.0477 13.1971C14.0582 13.1983 14.0681 13.2024 14.0764 13.209C14.1664 13.2825 14.2601 13.3552 14.3554 13.425C14.3629 13.4305 14.3689 13.4377 14.3729 13.4461C14.3769 13.4545 14.3788 13.4638 14.3783 13.4731C14.3779 13.4824 14.3751 13.4914 14.3704 13.4994C14.3656 13.5073 14.3589 13.514 14.3509 13.5187C13.9024 13.7767 13.4359 13.995 12.9461 14.1765C12.9386 14.1792 12.9317 14.1835 12.926 14.1891C12.9203 14.1947 12.9158 14.2014 12.9129 14.2089C12.91 14.2163 12.9087 14.2243 12.9091 14.2323C12.9096 14.2403 12.9117 14.2481 12.9154 14.2552C13.1854 14.7705 13.4944 15.261 13.8341 15.7267C13.8412 15.7363 13.851 15.7434 13.8623 15.7472C13.8736 15.7509 13.8857 15.7511 13.8971 15.7477C15.5129 15.2615 17.0348 14.5056 18.3986 13.512C18.4053 13.5073 18.4109 13.5013 18.415 13.4943C18.4191 13.4873 18.4217 13.4796 18.4226 13.4715C18.7976 9.65098 17.7941 6.33148 15.7609 3.38998C15.7559 3.38042 15.7476 3.37297 15.7376 3.36898ZM6.51487 11.4585C5.62837 11.4585 4.89712 10.6567 4.89712 9.67348C4.89712 8.68948 5.61412 7.88848 6.51487 7.88848C7.42237 7.88848 8.14687 8.69623 8.13262 9.67348C8.13262 10.6575 7.41562 11.4585 6.51487 11.4585ZM12.4961 11.4585C11.6089 11.4585 10.8784 10.6567 10.8784 9.67348C10.8784 8.68948 11.5946 7.88848 12.4961 7.88848C13.4036 7.88848 14.1281 8.69623 14.1139 9.67348C14.1139 10.6575 13.4044 11.4585 12.4961 11.4585Z" fill="#3B82F6"/>
</g>
<defs>
<clipPath id="clip0_12_951">
<rect width="18" height="18" fill="white" transform="translate(0.5)"/>
</clipPath>
</defs>
</svg>
