<svg width="19" height="18" viewBox="0 0 19 18" fill="none" xmlns="http://www.w3.org/2000/svg">
<path d="M5 3.375C4.40326 3.375 3.83097 3.61205 3.40901 4.03401C2.98705 4.45597 2.75 5.02826 2.75 5.625V5.85113L9.5 9.486L16.25 5.85225V5.625C16.25 5.02826 16.0129 4.45597 15.591 4.03401C15.169 3.61205 14.5967 3.375 14 3.375H5ZM16.25 7.12912L9.76663 10.62C9.68468 10.6641 9.59307 10.6872 9.5 10.6872C9.40693 10.6872 9.31532 10.6641 9.23338 10.62L2.75 7.12912V12.375C2.75 12.9717 2.98705 13.544 3.40901 13.966C3.83097 14.3879 4.40326 14.625 5 14.625H14C14.5967 14.625 15.169 14.3879 15.591 13.966C16.0129 13.544 16.25 12.9717 16.25 12.375V7.12912Z" fill="#3B82F6"/>
</svg>
