<svg width="286" height="286" viewBox="0 0 286 286" fill="none" xmlns="http://www.w3.org/2000/svg">
	<path
		d="M143 0C63.9925 0 0 63.9925 0 143C0 206.277 40.9337 259.724 97.7762 278.671C104.926 279.923 107.607 275.633 107.607 271.879C107.607 268.483 107.429 257.221 107.429 245.245C71.5 251.859 62.205 236.486 59.345 228.442C57.7362 224.331 50.765 211.64 44.6875 208.244C39.6825 205.562 32.5325 198.949 44.5088 198.77C55.77 198.591 63.8138 209.137 66.495 213.427C79.365 235.056 99.9213 228.979 108.144 225.225C109.395 215.93 113.149 209.674 117.26 206.099C85.4425 202.524 52.195 190.19 52.195 135.492C52.195 119.941 57.7363 107.071 66.8525 97.0612C65.4225 93.4862 60.4175 78.8287 68.2825 59.1662C68.2825 59.1662 80.2588 55.4125 107.607 73.8238C119.047 70.6063 131.203 68.9975 143.358 68.9975C155.513 68.9975 167.668 70.6063 179.108 73.8238C206.456 55.2338 218.433 59.1662 218.433 59.1662C226.298 78.8287 221.293 93.4862 219.863 97.0612C228.979 107.071 234.52 119.762 234.52 135.492C234.52 190.369 201.094 202.524 169.276 206.099C174.46 210.567 178.929 219.148 178.929 232.554C178.929 251.68 178.75 267.053 178.75 271.879C178.75 275.633 181.431 280.101 188.581 278.671C216.971 269.09 241.64 250.846 259.116 226.508C276.593 202.169 285.995 172.963 286 143C286 63.9925 222.008 0 143 0Z"
		fill="url(#paint0_linear_139_148)"/>
	<defs>
		<linearGradient id="paint0_linear_139_148" x1="0" y1="139.472" x2="286" y2="139.472" gradientUnits="userSpaceOnUse">
			<stop stop-color="#2B5876"/>
			<stop offset="1" stop-color="#4E4376"/>
		</linearGradient>
	</defs>
</svg>
