<svg width="19" height="18" viewBox="0 0 19 18" fill="none" xmlns="http://www.w3.org/2000/svg">
<path fill-rule="evenodd" clip-rule="evenodd" d="M6.09875 0.7995C6.9785 0.759 7.259 0.75 9.5 0.75C11.741 0.75 12.0215 0.75975 12.9005 0.7995C13.7795 0.83925 14.3795 0.9795 14.9045 1.18275C15.4542 1.3905 15.953 1.71525 16.3655 2.13525C16.7855 2.547 17.1095 3.045 17.3165 3.5955C17.5205 4.1205 17.66 4.7205 17.7005 5.598C17.741 6.47925 17.75 6.75975 17.75 9C17.75 11.241 17.7402 11.5215 17.7005 12.4012C17.6607 13.2787 17.5205 13.8787 17.3165 14.4037C17.1095 14.9543 16.785 15.4531 16.3655 15.8655C15.953 16.2855 15.4542 16.6095 14.9045 16.8165C14.3795 17.0205 13.7795 17.16 12.902 17.2005C12.0215 17.241 11.741 17.25 9.5 17.25C7.259 17.25 6.9785 17.2402 6.09875 17.2005C5.22125 17.1607 4.62125 17.0205 4.09625 16.8165C3.54569 16.6095 3.04687 16.2849 2.6345 15.8655C2.21478 15.4535 1.88999 14.9549 1.68275 14.4045C1.4795 13.8795 1.34 13.2795 1.2995 12.402C1.259 11.5207 1.25 11.2402 1.25 9C1.25 6.759 1.25975 6.4785 1.2995 5.5995C1.33925 4.7205 1.4795 4.1205 1.68275 3.5955C1.89029 3.04506 2.21534 2.54648 2.63525 2.1345C3.04703 1.71488 3.54535 1.39008 4.0955 1.18275C4.6205 0.9795 5.2205 0.84 6.098 0.7995H6.09875ZM12.8337 2.2845C11.9637 2.24475 11.7028 2.2365 9.5 2.2365C7.29725 2.2365 7.03625 2.24475 6.16625 2.2845C5.3615 2.32125 4.925 2.4555 4.634 2.56875C4.24925 2.71875 3.974 2.8965 3.68525 3.18525C3.41153 3.45154 3.20089 3.77571 3.06875 4.134C2.9555 4.425 2.82125 4.8615 2.7845 5.66625C2.74475 6.53625 2.7365 6.79725 2.7365 9C2.7365 11.2028 2.74475 11.4637 2.7845 12.3337C2.82125 13.1385 2.9555 13.575 3.06875 13.866C3.20075 14.2238 3.4115 14.5485 3.68525 14.8148C3.9515 15.0885 4.27625 15.2993 4.634 15.4313C4.925 15.5445 5.3615 15.6788 6.16625 15.7155C7.03625 15.7552 7.2965 15.7635 9.5 15.7635C11.7035 15.7635 11.9637 15.7552 12.8337 15.7155C13.6385 15.6788 14.075 15.5445 14.366 15.4313C14.7508 15.2813 15.026 15.1035 15.3148 14.8148C15.5885 14.5485 15.7993 14.2238 15.9313 13.866C16.0445 13.575 16.1788 13.1385 16.2155 12.3337C16.2552 11.4637 16.2635 11.2028 16.2635 9C16.2635 6.79725 16.2552 6.53625 16.2155 5.66625C16.1788 4.8615 16.0445 4.425 15.9313 4.134C15.7813 3.74925 15.6035 3.474 15.3148 3.18525C15.0484 2.91155 14.7243 2.70091 14.366 2.56875C14.075 2.4555 13.6385 2.32125 12.8337 2.2845ZM8.44625 11.5433C9.03474 11.7882 9.69003 11.8213 10.3002 11.6368C10.9104 11.4523 11.4375 11.0617 11.7917 10.5317C12.1459 10.0017 12.305 9.36515 12.242 8.73083C12.179 8.0965 11.8978 7.50373 11.4462 7.05375C11.1584 6.76611 10.8104 6.54586 10.4272 6.40886C10.0441 6.27186 9.63532 6.22152 9.23037 6.26146C8.82542 6.3014 8.43436 6.43063 8.08535 6.63985C7.73634 6.84906 7.43806 7.13306 7.21198 7.47139C6.9859 7.80972 6.83764 8.19397 6.77789 8.59647C6.71813 8.99897 6.74836 9.40972 6.8664 9.79914C6.98445 10.1886 7.18736 10.547 7.46054 10.8485C7.73372 11.1501 8.07037 11.3874 8.44625 11.5433ZM6.5015 6.0015C6.89527 5.60773 7.36274 5.29538 7.87722 5.08227C8.39171 4.86916 8.94313 4.75948 9.5 4.75948C10.0569 4.75948 10.6083 4.86916 11.1228 5.08227C11.6373 5.29538 12.1047 5.60773 12.4985 6.0015C12.8923 6.39527 13.2046 6.86274 13.4177 7.37722C13.6308 7.89171 13.7405 8.44313 13.7405 9C13.7405 9.55687 13.6308 10.1083 13.4177 10.6228C13.2046 11.1373 12.8923 11.6047 12.4985 11.9985C11.7032 12.7938 10.6247 13.2405 9.5 13.2405C8.37534 13.2405 7.29675 12.7938 6.5015 11.9985C5.70625 11.2032 5.25948 10.1247 5.25948 9C5.25948 7.87534 5.70625 6.79675 6.5015 6.0015ZM14.681 5.391C14.7786 5.29895 14.8567 5.18826 14.9107 5.06548C14.9648 4.9427 14.9936 4.81033 14.9956 4.6762C14.9975 4.54207 14.9725 4.40891 14.9221 4.28461C14.8717 4.1603 14.7968 4.04738 14.702 3.95253C14.6071 3.85768 14.4942 3.78282 14.3699 3.73239C14.2456 3.68196 14.1124 3.65698 13.9783 3.65894C13.8442 3.66089 13.7118 3.68974 13.589 3.74377C13.4662 3.7978 13.3555 3.87592 13.2635 3.9735C13.0845 4.16327 12.9865 4.41534 12.9903 4.6762C12.9941 4.93705 13.0994 5.18616 13.2839 5.37063C13.4683 5.55511 13.7174 5.66042 13.9783 5.66422C14.2392 5.66803 14.4912 5.57002 14.681 5.391Z" fill="#3B82F6"/>
</svg>
