<svg width="19" height="18" viewBox="0 0 19 18" fill="none" xmlns="http://www.w3.org/2000/svg">
<g clip-path="url(#clip0_12_976)">
<path d="M18.2321 3.70281C17.6059 3.98031 16.9331 4.16781 16.2259 4.25256C16.9556 3.8159 17.5016 3.12866 17.7619 2.31906C17.0763 2.7263 16.3259 3.01295 15.5434 3.16656C15.0172 2.60471 14.3202 2.2323 13.5606 2.10716C12.8011 1.98202 12.0215 2.11115 11.3428 2.4745C10.6642 2.83784 10.1245 3.41508 9.8075 4.11659C9.49054 4.81809 9.41404 5.60462 9.58989 6.35406C8.20065 6.2843 6.84161 5.92322 5.60096 5.29424C4.3603 4.66525 3.26577 3.78243 2.38839 2.70306C2.08839 3.22056 1.91589 3.82056 1.91589 4.45956C1.91555 5.0348 2.05721 5.60124 2.3283 6.10861C2.59938 6.61597 2.99151 7.04859 3.46989 7.36806C2.91509 7.3504 2.37254 7.2005 1.88739 6.93081V6.97581C1.88733 7.78261 2.16641 8.56459 2.67727 9.18905C3.18814 9.81352 3.89932 10.242 4.69014 10.4018C4.17547 10.5411 3.63589 10.5616 3.11214 10.4618C3.33526 11.156 3.76988 11.7631 4.35516 12.198C4.94044 12.6329 5.64707 12.8739 6.37614 12.8873C5.13851 13.8589 3.61005 14.3859 2.03664 14.3836C1.75792 14.3836 1.47944 14.3674 1.20264 14.3348C2.79974 15.3617 4.65889 15.9067 6.55764 15.9046C12.9851 15.9046 16.4989 10.5811 16.4989 5.96406C16.4989 5.81406 16.4951 5.66256 16.4884 5.51256C17.1719 5.01829 17.7618 4.40623 18.2306 3.70506L18.2321 3.70281Z" fill="#3B82F6"/>
</g>
<defs>
<clipPath id="clip0_12_976">
<rect width="18" height="18" fill="white" transform="translate(0.5)"/>
</clipPath>
</defs>
</svg>
