<svg width="49" height="48" viewBox="0 0 49 48" fill="none" xmlns="http://www.w3.org/2000/svg">
<rect x="0.5" width="48" height="48" rx="4.5" fill="#1D4079"/>
<path d="M21 19.375C20.4033 19.375 19.831 19.6121 19.409 20.034C18.9871 20.456 18.75 21.0283 18.75 21.625V21.8511L25.5 25.486L32.25 21.8523V21.625C32.25 21.0283 32.0129 20.456 31.591 20.034C31.169 19.6121 30.5967 19.375 30 19.375H21ZM32.25 23.1291L25.7666 26.62C25.6847 26.6641 25.5931 26.6872 25.5 26.6872C25.4069 26.6872 25.3153 26.6641 25.2334 26.62L18.75 23.1291V28.375C18.75 28.9717 18.9871 29.544 19.409 29.966C19.831 30.3879 20.4033 30.625 21 30.625H30C30.5967 30.625 31.169 30.3879 31.591 29.966C32.0129 29.544 32.25 28.9717 32.25 28.375V23.1291Z" fill="#3B82F6"/>
</svg>
