<svg width="49" height="48" viewBox="0 0 49 48" fill="none" xmlns="http://www.w3.org/2000/svg">
<rect x="0.5" width="48" height="48" rx="4.5" fill="#1D4079"/>
<g clip-path="url(#clip0_1_98)">
<path fill-rule="evenodd" clip-rule="evenodd" d="M24.5 15C19.5275 15 15.5 19.0275 15.5 24C15.5 27.9825 18.0763 31.3463 21.6537 32.5388C22.1037 32.6175 22.2725 32.3475 22.2725 32.1113C22.2725 31.8975 22.2613 31.1888 22.2613 30.435C20 30.8513 19.415 29.8838 19.235 29.3775C19.1337 29.1188 18.695 28.32 18.3125 28.1063C17.9975 27.9375 17.5475 27.5213 18.3012 27.51C19.01 27.4988 19.5163 28.1625 19.685 28.4325C20.495 29.7938 21.7887 29.4113 22.3062 29.175C22.385 28.59 22.6213 28.1963 22.88 27.9713C20.8775 27.7463 18.785 26.97 18.785 23.5275C18.785 22.5488 19.1338 21.7388 19.7075 21.1088C19.6175 20.8838 19.3025 19.9613 19.7975 18.7238C19.7975 18.7238 20.5512 18.4875 22.2725 19.6463C22.9925 19.4438 23.7575 19.3425 24.5225 19.3425C25.2875 19.3425 26.0525 19.4438 26.7725 19.6463C28.4937 18.4763 29.2475 18.7238 29.2475 18.7238C29.7425 19.9613 29.4275 20.8838 29.3375 21.1088C29.9113 21.7388 30.26 22.5375 30.26 23.5275C30.26 26.9813 28.1562 27.7463 26.1537 27.9713C26.48 28.2525 26.7613 28.7925 26.7613 29.6363C26.7613 30.84 26.75 31.8075 26.75 32.1113C26.75 32.3475 26.9187 32.6288 27.3687 32.5388C29.1554 31.9355 30.7079 30.7873 31.8077 29.2555C32.9076 27.7238 33.4995 25.8857 33.5 24C33.5 19.0275 29.4725 15 24.5 15Z" fill="#007BFF"/>
</g>
<defs>
<clipPath id="clip0_1_98">
<rect width="18" height="18" fill="white" transform="translate(15.5 15)"/>
</clipPath>
</defs>
</svg>
