<svg width="49" height="48" viewBox="0 0 49 48" fill="none" xmlns="http://www.w3.org/2000/svg">
<rect x="0.5" width="48" height="48" rx="4.5" fill="#1D4079"/>
<path fill-rule="evenodd" clip-rule="evenodd" d="M21.0988 15.7995C21.9785 15.759 22.259 15.75 24.5 15.75C26.741 15.75 27.0215 15.7597 27.9005 15.7995C28.7795 15.8392 29.3795 15.9795 29.9045 16.1828C30.4542 16.3905 30.953 16.7152 31.3655 17.1352C31.7855 17.547 32.1095 18.045 32.3165 18.5955C32.5205 19.1205 32.66 19.7205 32.7005 20.598C32.741 21.4792 32.75 21.7597 32.75 24C32.75 26.241 32.7402 26.5215 32.7005 27.4012C32.6607 28.2787 32.5205 28.8787 32.3165 29.4037C32.1095 29.9543 31.785 30.4531 31.3655 30.8655C30.953 31.2855 30.4542 31.6095 29.9045 31.8165C29.3795 32.0205 28.7795 32.16 27.902 32.2005C27.0215 32.241 26.741 32.25 24.5 32.25C22.259 32.25 21.9785 32.2402 21.0988 32.2005C20.2213 32.1607 19.6213 32.0205 19.0963 31.8165C18.5457 31.6095 18.0469 31.2849 17.6345 30.8655C17.2148 30.4535 16.89 29.9549 16.6828 29.4045C16.4795 28.8795 16.34 28.2795 16.2995 27.402C16.259 26.5207 16.25 26.2402 16.25 24C16.25 21.759 16.2597 21.4785 16.2995 20.5995C16.3392 19.7205 16.4795 19.1205 16.6828 18.5955C16.8903 18.0451 17.2153 17.5465 17.6352 17.1345C18.047 16.7149 18.5454 16.3901 19.0955 16.1828C19.6205 15.9795 20.2205 15.84 21.098 15.7995H21.0988ZM27.8337 17.2845C26.9637 17.2448 26.7028 17.2365 24.5 17.2365C22.2972 17.2365 22.0362 17.2448 21.1662 17.2845C20.3615 17.3212 19.925 17.4555 19.634 17.5687C19.2492 17.7188 18.974 17.8965 18.6853 18.1853C18.4115 18.4515 18.2009 18.7757 18.0687 19.134C17.9555 19.425 17.8212 19.8615 17.7845 20.6662C17.7448 21.5362 17.7365 21.7972 17.7365 24C17.7365 26.2028 17.7448 26.4637 17.7845 27.3337C17.8212 28.1385 17.9555 28.575 18.0687 28.866C18.2007 29.2238 18.4115 29.5485 18.6853 29.8148C18.9515 30.0885 19.2763 30.2993 19.634 30.4313C19.925 30.5445 20.3615 30.6788 21.1662 30.7155C22.0362 30.7552 22.2965 30.7635 24.5 30.7635C26.7035 30.7635 26.9637 30.7552 27.8337 30.7155C28.6385 30.6788 29.075 30.5445 29.366 30.4313C29.7508 30.2813 30.026 30.1035 30.3148 29.8148C30.5885 29.5485 30.7993 29.2238 30.9313 28.866C31.0445 28.575 31.1788 28.1385 31.2155 27.3337C31.2552 26.4637 31.2635 26.2028 31.2635 24C31.2635 21.7972 31.2552 21.5362 31.2155 20.6662C31.1788 19.8615 31.0445 19.425 30.9313 19.134C30.7813 18.7492 30.6035 18.474 30.3148 18.1853C30.0484 17.9116 29.7243 17.7009 29.366 17.5687C29.075 17.4555 28.6385 17.3212 27.8337 17.2845ZM23.4462 26.5433C24.0347 26.7882 24.69 26.8213 25.3002 26.6368C25.9104 26.4523 26.4375 26.0617 26.7917 25.5317C27.1459 25.0017 27.305 24.3652 27.242 23.7308C27.179 23.0965 26.8978 22.5037 26.4462 22.0538C26.1584 21.7661 25.8104 21.5459 25.4272 21.4089C25.0441 21.2719 24.6353 21.2215 24.2304 21.2615C23.8254 21.3014 23.4344 21.4306 23.0854 21.6398C22.7363 21.8491 22.4381 22.1331 22.212 22.4714C21.9859 22.8097 21.8376 23.194 21.7779 23.5965C21.7181 23.999 21.7484 24.4097 21.8664 24.7991C21.9844 25.1886 22.1874 25.547 22.4605 25.8485C22.7337 26.1501 23.0704 26.3874 23.4462 26.5433ZM21.5015 21.0015C21.8953 20.6077 22.3627 20.2954 22.8772 20.0823C23.3917 19.8692 23.9431 19.7595 24.5 19.7595C25.0569 19.7595 25.6083 19.8692 26.1228 20.0823C26.6373 20.2954 27.1047 20.6077 27.4985 21.0015C27.8923 21.3953 28.2046 21.8627 28.4177 22.3772C28.6308 22.8917 28.7405 23.4431 28.7405 24C28.7405 24.5569 28.6308 25.1083 28.4177 25.6228C28.2046 26.1373 27.8923 26.6047 27.4985 26.9985C26.7032 27.7938 25.6247 28.2405 24.5 28.2405C23.3753 28.2405 22.2968 27.7938 21.5015 26.9985C20.7062 26.2032 20.2595 25.1247 20.2595 24C20.2595 22.8753 20.7062 21.7968 21.5015 21.0015ZM29.681 20.391C29.7786 20.299 29.8567 20.1883 29.9107 20.0655C29.9648 19.9427 29.9936 19.8103 29.9956 19.6762C29.9975 19.5421 29.9725 19.4089 29.9221 19.2846C29.8717 19.1603 29.7968 19.0474 29.702 18.9525C29.6071 18.8577 29.4942 18.7828 29.3699 18.7324C29.2456 18.682 29.1124 18.657 28.9783 18.6589C28.8442 18.6609 28.7118 18.6897 28.589 18.7438C28.4662 18.7978 28.3555 18.8759 28.2635 18.9735C28.0845 19.1633 27.9865 19.4153 27.9903 19.6762C27.9941 19.9371 28.0994 20.1862 28.2839 20.3706C28.4683 20.5551 28.7174 20.6604 28.9783 20.6642C29.2392 20.668 29.4912 20.57 29.681 20.391Z" fill="#3B82F6"/>
</svg>
