<svg width="49" height="48" viewBox="0 0 49 48" fill="none" xmlns="http://www.w3.org/2000/svg">
<rect x="0.5" width="48" height="48" rx="4.5" fill="#1D4079"/>
<g clip-path="url(#clip0_1_114)">
<path d="M33.2321 18.7027C32.6059 18.9802 31.9331 19.1677 31.2259 19.2525C31.9556 18.8158 32.5016 18.1286 32.7619 17.319C32.0763 17.7262 31.3259 18.0129 30.5434 18.1665C30.0172 17.6046 29.3202 17.2322 28.5606 17.1071C27.8011 16.982 27.0215 17.1111 26.3428 17.4744C25.6642 17.8378 25.1245 18.415 24.8075 19.1165C24.4905 19.818 24.414 20.6046 24.5899 21.354C23.2007 21.2842 21.8416 20.9232 20.601 20.2942C19.3603 19.6652 18.2658 18.7824 17.3884 17.703C17.0884 18.2205 16.9159 18.8205 16.9159 19.4595C16.9156 20.0347 17.0572 20.6012 17.3283 21.1085C17.5994 21.6159 17.9915 22.0485 18.4699 22.368C17.9151 22.3503 17.3725 22.2004 16.8874 21.9307V21.9757C16.8873 22.7826 17.1664 23.5645 17.6773 24.189C18.1881 24.8135 18.8993 25.2419 19.6901 25.4017C19.1755 25.541 18.6359 25.5616 18.1121 25.4617C18.3353 26.156 18.7699 26.763 19.3552 27.1979C19.9404 27.6329 20.6471 27.8739 21.3761 27.8872C20.1385 28.8588 18.6101 29.3858 17.0366 29.3835C16.7579 29.3836 16.4794 29.3673 16.2026 29.3347C17.7997 30.3616 19.6589 30.9066 21.5576 30.9045C27.9851 30.9045 31.4989 25.581 31.4989 20.964C31.4989 20.814 31.4951 20.6625 31.4884 20.5125C32.1719 20.0182 32.7618 19.4062 33.2306 18.705L33.2321 18.7027Z" fill="#3B82F6"/>
</g>
<defs>
<clipPath id="clip0_1_114">
<rect width="18" height="18" fill="white" transform="translate(15.5 15)"/>
</clipPath>
</defs>
</svg>
