<svg width="49" height="48" viewBox="0 0 49 48" fill="none" xmlns="http://www.w3.org/2000/svg">
	<rect x="0.5" width="48" height="48" rx="4.5" fill="#EBF3FE"/>
	<g clip-path="url(#clip0_1_70)">
		<path
			d="M30.7376 18.369C29.5901 17.8515 28.3601 17.469 27.0739 17.2515C27.0624 17.2493 27.0506 17.2507 27.0399 17.2555C27.0293 17.2604 27.0205 17.2684 27.0146 17.2785C26.8571 17.5552 26.6816 17.916 26.5586 18.201C25.1944 17.9972 23.8076 17.9972 22.4434 18.201C22.3064 17.8851 22.1519 17.5771 21.9806 17.2785C21.9748 17.2683 21.966 17.2601 21.9554 17.255C21.9449 17.2499 21.933 17.2481 21.9214 17.25C20.6359 17.4675 19.4059 17.85 18.2576 18.3682C18.2477 18.3724 18.2394 18.3794 18.2336 18.3885C15.8996 21.8197 15.2599 25.1662 15.5741 28.4707C15.575 28.4788 15.5775 28.4867 15.5815 28.4937C15.5855 28.5008 15.5909 28.507 15.5974 28.512C16.9597 29.5038 18.4791 30.2593 20.0921 30.747C20.1034 30.7504 20.1154 30.7504 20.1266 30.747C20.1379 30.7435 20.1478 30.7367 20.1551 30.7275C20.5022 30.2633 20.8098 29.7708 21.0746 29.2552C21.0783 29.2482 21.0804 29.2404 21.0808 29.2325C21.0813 29.2245 21.08 29.2166 21.077 29.2092C21.0741 29.2018 21.0697 29.1951 21.0639 29.1896C21.0582 29.1841 21.0514 29.1799 21.0439 29.1772C20.5594 28.9948 20.0899 28.7746 19.6399 28.5187C19.6318 28.5141 19.625 28.5076 19.62 28.4997C19.6151 28.4918 19.6122 28.4828 19.6116 28.4735C19.611 28.4642 19.6127 28.4549 19.6166 28.4464C19.6205 28.438 19.6264 28.4306 19.6339 28.425C19.7284 28.3552 19.8229 28.2825 19.9129 28.2097C19.921 28.2032 19.9307 28.199 19.9411 28.1977C19.9514 28.1964 19.9619 28.1979 19.9714 28.2022C22.9166 29.5252 26.1064 29.5252 29.0171 28.2022C29.0266 28.1977 29.0372 28.1959 29.0477 28.1971C29.0582 28.1983 29.0681 28.2024 29.0764 28.209C29.1664 28.2825 29.2601 28.3552 29.3554 28.425C29.3629 28.4305 29.3689 28.4377 29.3729 28.4461C29.3769 28.4545 29.3788 28.4638 29.3783 28.4731C29.3779 28.4824 29.3751 28.4914 29.3704 28.4994C29.3656 28.5073 29.3589 28.514 29.3509 28.5187C28.9024 28.7767 28.4359 28.995 27.9461 29.1765C27.9386 29.1792 27.9317 29.1835 27.926 29.1891C27.9203 29.1947 27.9158 29.2014 27.9129 29.2089C27.91 29.2163 27.9087 29.2243 27.9091 29.2323C27.9096 29.2403 27.9117 29.2481 27.9154 29.2552C28.1854 29.7705 28.4944 30.261 28.8341 30.7267C28.8412 30.7363 28.851 30.7434 28.8623 30.7472C28.8736 30.7509 28.8857 30.7511 28.8971 30.7477C30.5129 30.2615 32.0348 29.5056 33.3986 28.512C33.4053 28.5073 33.4109 28.5013 33.415 28.4943C33.4191 28.4873 33.4217 28.4796 33.4226 28.4715C33.7976 24.651 32.7941 21.3315 30.7609 18.39C30.7559 18.3804 30.7476 18.373 30.7376 18.369ZM21.5149 26.4585C20.6284 26.4585 19.8971 25.6567 19.8971 24.6735C19.8971 23.6895 20.6141 22.8885 21.5149 22.8885C22.4224 22.8885 23.1469 23.6962 23.1326 24.6735C23.1326 25.6575 22.4156 26.4585 21.5149 26.4585ZM27.4961 26.4585C26.6089 26.4585 25.8784 25.6567 25.8784 24.6735C25.8784 23.6895 26.5946 22.8885 27.4961 22.8885C28.4036 22.8885 29.1281 23.6962 29.1139 24.6735C29.1139 25.6575 28.4044 26.4585 27.4961 26.4585Z"
			fill="#3B82F6"/>
	</g>
	<defs>
		<clipPath id="clip0_1_70">
			<rect width="18" height="18" fill="white" transform="translate(15.5 15)"/>
		</clipPath>
	</defs>
</svg>
