<svg width="49" height="48" viewBox="0 0 49 48" fill="none" xmlns="http://www.w3.org/2000/svg">
	<rect x="0.5" width="48" height="48" rx="4.5" fill="#EBF3FE"/>
	<g clip-path="url(#clip0_456_139)">
		<path fill-rule="evenodd" clip-rule="evenodd"
			  d="M15.75 17.1285C15.7504 16.763 15.8958 16.4126 16.1542 16.1542C16.4126 15.8958 16.763 15.7504 17.1285 15.75H30.87C31.0512 15.7497 31.2306 15.7851 31.3981 15.8543C31.5656 15.9235 31.7178 16.025 31.8459 16.153C31.9741 16.281 32.0758 16.4331 32.1451 16.6005C32.2145 16.7679 32.2501 16.9473 32.25 17.1285V30.87C32.25 31.2359 32.1047 31.5868 31.8461 31.8455C31.5874 32.1043 31.2366 32.2498 30.8707 32.25H17.1285C16.7629 32.2496 16.4124 32.1041 16.1539 31.8455C15.8955 31.5869 15.7502 31.2364 15.75 30.8708V17.1285ZM22.281 22.041H24.5153V23.163C24.8378 22.518 25.6627 21.9375 26.9025 21.9375C29.2792 21.9375 29.8425 23.2223 29.8425 25.5795V29.946H27.4373V26.1165C27.4373 24.774 27.1147 24.0165 26.2957 24.0165C25.1595 24.0165 24.687 24.8333 24.687 26.1165V29.946H22.281V22.041ZM18.156 29.8433H20.562V21.9375H18.156V29.8433ZM20.9062 19.359C20.9108 19.565 20.8741 19.7698 20.7984 19.9615C20.7227 20.1531 20.6095 20.3277 20.4654 20.475C20.3213 20.6223 20.1493 20.7394 19.9593 20.8193C19.7694 20.8992 19.5654 20.9403 19.3594 20.9403C19.1533 20.9403 18.9493 20.8992 18.7594 20.8193C18.5695 20.7394 18.3974 20.6223 18.2533 20.475C18.1092 20.3277 17.996 20.1531 17.9203 19.9615C17.8446 19.7698 17.808 19.565 17.8125 19.359C17.8214 18.9546 17.9883 18.5698 18.2774 18.287C18.5665 18.0042 18.9549 17.8458 19.3594 17.8458C19.7638 17.8458 20.1522 18.0042 20.4413 18.287C20.7305 18.5698 20.8973 18.9546 20.9062 19.359Z"
			  fill="#3B82F6"/>
	</g>
	<defs>
		<clipPath id="clip0_456_139">
			<rect width="18" height="18" fill="white" transform="translate(15 15)"/>
		</clipPath>
	</defs>
</svg>
